<!-- <svg xmlns="http://www.w3.org/2000/svg" width="23.303" height="18.448" viewBox="0 0 23.303 18.448">
  <path id="Icon_map-art-gallery" data-name="Icon map-art-gallery" d="M471.651,3986.223a4.2,4.2,0,0,1-4.293-4.3c0-1.747-1.066-2.459-3.68-2.459a3.386,3.386,0,0,1-2.76-1.23,4.874,4.874,0,0,1-.92-3.074,7.158,7.158,0,0,1,2.606-4.613,10.661,10.661,0,0,1,7.206-2.767c4.028,0,7.225.724,9.5,2.153a8.471,8.471,0,0,1,3.986,7.687,7.666,7.666,0,0,1-2.836,5.918C478.377,3985.292,475.329,3986.223,471.651,3986.223Zm0-6.148a1.844,1.844,0,1,0,1.839,1.845A1.829,1.829,0,0,0,471.651,3980.074Zm-7.665-6.149a1.535,1.535,0,1,0,1.084.451A1.525,1.525,0,0,0,463.986,3973.925Zm14.1-1.231a1.536,1.536,0,1,0,1.085.451A1.537,1.537,0,0,0,478.09,3972.694Zm-4.906-2.459a1.538,1.538,0,0,0-1.533,1.538,1.532,1.532,0,1,0,1.533-1.538Zm-4.905,0a1.537,1.537,0,1,0,1.533,1.538A1.525,1.525,0,0,0,468.279,3970.235Z" transform="translate(-460 -3967.775)" fill="#fff"/>
</svg> -->
<svg style="color: white" role="img" viewBox="0 0 24 24" xmlns="http://www.w3.org/2000/svg"><title>Open Badges</title><path d="M18.43 18.584l-8.265-4.749 1.078-.641.719-.411.719.41 1.796 1.027 1.437.821 1.797 1.027 1.438.822 1.078.616zm-3.234 1.873l-8.24-4.774 1.797-1.027 8.24 4.75-1.797 1.051zm-3.209 1.848l-8.24-4.748 1.797-1.027 8.24 4.749zM3.03 14.246l8.24-4.748v2.079l-.719.41-1.797 1.027-1.438.821-1.796 1.027-1.437.822-1.053.615v-2.054zm0-3.722l8.24-4.749v2.08l-8.24 4.723v-2.054zm0-3.722l8.24-4.749v2.054L3.03 8.856V6.802zm9.677-4.749l1.797 1.027v9.523l-1.078-.616-.719-.41V2.052zm3.209 1.848l1.796 1.027v9.523l-1.797-1.027V3.901zm3.234 1.875l1.796 1.026v9.523l-1.796-1.027V5.775zm3.26.205l-1.49-.822-1.796-1.026-1.412-.847-1.797-1.027-1.437-.822L12.68.411 11.962 0l-.719.411-9.651 5.57v12.012l.718.41L11.987 24l1.438-.822 1.797-1.026 1.437-.821 1.797-1.027 1.437-.821 1.797-1.027.718-.411Z" fill="white"></path></svg>